<?xml version="1.0" encoding="UTF-8" standalone="no"?>
<!-- Created with Inkscape (http://www.inkscape.org/) -->
<svg
   xmlns:dc="http://purl.org/dc/elements/1.1/"
   xmlns:cc="http://creativecommons.org/ns#"
   xmlns:rdf="http://www.w3.org/1999/02/22-rdf-syntax-ns#"
   xmlns:svg="http://www.w3.org/2000/svg"
   xmlns="http://www.w3.org/2000/svg"
   xmlns:sodipodi="http://sodipodi.sourceforge.net/DTD/sodipodi-0.dtd"
   xmlns:inkscape="http://www.inkscape.org/namespaces/inkscape"
   width="487.95248"
   height="318.37988"
   id="svg2656"
   sodipodi:version="0.32"
   inkscape:version="0.46"
   sodipodi:docname="deltatnozoom.svg"
   inkscape:output_extension="org.inkscape.output.svg.inkscape"
   version="1.0">
  <defs
     id="defs2658">
    <inkscape:perspective
       sodipodi:type="inkscape:persp3d"
       inkscape:vp_x="0 : 526.18109 : 1"
       inkscape:vp_y="0 : 1000 : 0"
       inkscape:vp_z="744.09448 : 526.18109 : 1"
       inkscape:persp3d-origin="372.04724 : 350.78739 : 1"
       id="perspective2664" />
  </defs>
  <sodipodi:namedview
     id="base"
     pagecolor="#ffffff"
     bordercolor="#666666"
     borderopacity="1.0"
     gridtolerance="10000"
     guidetolerance="10"
     objecttolerance="10"
     inkscape:pageopacity="0.0"
     inkscape:pageshadow="2"
     inkscape:zoom="0.35"
     inkscape:cx="375"
     inkscape:cy="520"
     inkscape:document-units="px"
     inkscape:current-layer="layer1"
     showgrid="false"
     inkscape:window-width="640"
     inkscape:window-height="683"
     inkscape:window-x="0"
     inkscape:window-y="25" />
  <metadata
     id="metadata2661">
    <rdf:RDF>
      <cc:Work
         rdf:about="">
        <dc:format>image/svg+xml</dc:format>
        <dc:type
           rdf:resource="http://purl.org/dc/dcmitype/StillImage" />
      </cc:Work>
    </rdf:RDF>
  </metadata>
  <g
     inkscape:label="Layer 1"
     inkscape:groupmode="layer"
     id="layer1"
     transform="translate(-24.595204,-96.029373)">
    <g
       id="g3067">
      <polygon
         transform="matrix(0.7026359,0,0,-0.7026359,66.635941,521.24363)"
         points="28.75,202.42 28.75,604.92 611.42,604.92 611.42,202.42 28.75,202.42 "
         id="polygon2451"
         style="font-style:normal;font-variant:normal;font-weight:normal;font-stretch:normal;letter-spacing:normal;word-spacing:normal;text-anchor:start;fill:none;fill-opacity:1;stroke:#ffffff;stroke-width:0.5;stroke-linecap:butt;stroke-linejoin:round;stroke-miterlimit:10.43299961;stroke-dasharray:none;stroke-dashoffset:0;stroke-opacity:1;display:inline" />
      <line
         x1="86.836838"
         y1="379.01602"
         x2="496.24167"
         y2="379.01602"
         id="line2453"
         style="font-style:normal;font-variant:normal;font-weight:normal;font-stretch:normal;letter-spacing:normal;word-spacing:normal;text-anchor:start;fill:none;fill-opacity:1;stroke:#000000;stroke-width:0.35131794;stroke-linecap:butt;stroke-linejoin:miter;stroke-miterlimit:10.43299961;stroke-dasharray:none;stroke-dashoffset:0;stroke-opacity:1;display:inline" />
      <line
         x1="86.836838"
         y1="96.205032"
         x2="496.24167"
         y2="96.205032"
         id="line2455"
         style="font-style:normal;font-variant:normal;font-weight:normal;font-stretch:normal;letter-spacing:normal;word-spacing:normal;text-anchor:start;fill:none;fill-opacity:1;stroke:#000000;stroke-width:0.35131794;stroke-linecap:butt;stroke-linejoin:miter;stroke-miterlimit:10.43299961;stroke-dasharray:none;stroke-dashoffset:0;stroke-opacity:1;display:inline" />
      <line
         x1="86.836838"
         y1="379.01602"
         x2="86.836838"
         y2="96.205032"
         id="line2457"
         style="font-style:normal;font-variant:normal;font-weight:normal;font-stretch:normal;letter-spacing:normal;word-spacing:normal;text-anchor:start;fill:none;fill-opacity:1;stroke:#000000;stroke-width:0.35131794;stroke-linecap:butt;stroke-linejoin:miter;stroke-miterlimit:10.43299961;stroke-dasharray:none;stroke-dashoffset:0;stroke-opacity:1;display:inline" />
      <line
         x1="496.24167"
         y1="379.01602"
         x2="496.24167"
         y2="96.205032"
         id="line2459"
         style="font-style:normal;font-variant:normal;font-weight:normal;font-stretch:normal;letter-spacing:normal;word-spacing:normal;text-anchor:start;fill:none;fill-opacity:1;stroke:#000000;stroke-width:0.35131794;stroke-linecap:butt;stroke-linejoin:miter;stroke-miterlimit:10.43299961;stroke-dasharray:none;stroke-dashoffset:0;stroke-opacity:1;display:inline" />
      <line
         x1="86.836838"
         y1="379.01602"
         x2="496.24167"
         y2="379.01602"
         id="line2461"
         style="font-style:normal;font-variant:normal;font-weight:normal;font-stretch:normal;letter-spacing:normal;word-spacing:normal;text-anchor:start;fill:none;fill-opacity:1;stroke:#000000;stroke-width:0.35131794;stroke-linecap:butt;stroke-linejoin:miter;stroke-miterlimit:10.43299961;stroke-dasharray:none;stroke-dashoffset:0;stroke-opacity:1;display:inline" />
      <line
         x1="86.836838"
         y1="379.01602"
         x2="86.836838"
         y2="96.205032"
         id="line2463"
         style="font-style:normal;font-variant:normal;font-weight:normal;font-stretch:normal;letter-spacing:normal;word-spacing:normal;text-anchor:start;fill:none;fill-opacity:1;stroke:#000000;stroke-width:0.35131794;stroke-linecap:butt;stroke-linejoin:miter;stroke-miterlimit:10.43299961;stroke-dasharray:none;stroke-dashoffset:0;stroke-opacity:1;display:inline" />
      <line
         x1="86.836838"
         y1="379.01602"
         x2="86.836838"
         y2="374.91965"
         id="line2465"
         style="font-style:normal;font-variant:normal;font-weight:normal;font-stretch:normal;letter-spacing:normal;word-spacing:normal;text-anchor:start;fill:none;fill-opacity:1;stroke:#000000;stroke-width:0.35131794;stroke-linecap:butt;stroke-linejoin:miter;stroke-miterlimit:10.43299961;stroke-dasharray:none;stroke-dashoffset:0;stroke-opacity:1;display:inline" />
      <line
         x1="86.836838"
         y1="96.205032"
         x2="86.836838"
         y2="100.24519"
         id="line2467"
         style="font-style:normal;font-variant:normal;font-weight:normal;font-stretch:normal;letter-spacing:normal;word-spacing:normal;text-anchor:start;fill:none;fill-opacity:1;stroke:#000000;stroke-width:0.35131794;stroke-linecap:butt;stroke-linejoin:miter;stroke-miterlimit:10.43299961;stroke-dasharray:none;stroke-dashoffset:0;stroke-opacity:1;display:inline" />
      <line
         x1="189.12651"
         y1="379.01602"
         x2="189.12651"
         y2="374.91965"
         id="line2471"
         style="font-style:normal;font-variant:normal;font-weight:normal;font-stretch:normal;letter-spacing:normal;word-spacing:normal;text-anchor:start;fill:none;fill-opacity:1;stroke:#000000;stroke-width:0.35131794;stroke-linecap:butt;stroke-linejoin:miter;stroke-miterlimit:10.43299961;stroke-dasharray:none;stroke-dashoffset:0;stroke-opacity:1;display:inline" />
      <line
         x1="189.12651"
         y1="96.205032"
         x2="189.12651"
         y2="100.24519"
         id="line2473"
         style="font-style:normal;font-variant:normal;font-weight:normal;font-stretch:normal;letter-spacing:normal;word-spacing:normal;text-anchor:start;fill:none;fill-opacity:1;stroke:#000000;stroke-width:0.35131794;stroke-linecap:butt;stroke-linejoin:miter;stroke-miterlimit:10.43299961;stroke-dasharray:none;stroke-dashoffset:0;stroke-opacity:1;display:inline" />
      <line
         x1="291.5358"
         y1="379.01602"
         x2="291.5358"
         y2="374.91965"
         id="line2477"
         style="font-style:normal;font-variant:normal;font-weight:normal;font-stretch:normal;letter-spacing:normal;word-spacing:normal;text-anchor:start;fill:none;fill-opacity:1;stroke:#000000;stroke-width:0.35131794;stroke-linecap:butt;stroke-linejoin:miter;stroke-miterlimit:10.43299961;stroke-dasharray:none;stroke-dashoffset:0;stroke-opacity:1;display:inline" />
      <line
         x1="291.5358"
         y1="96.205032"
         x2="291.5358"
         y2="100.24519"
         id="line2479"
         style="font-style:normal;font-variant:normal;font-weight:normal;font-stretch:normal;letter-spacing:normal;word-spacing:normal;text-anchor:start;fill:none;fill-opacity:1;stroke:#000000;stroke-width:0.35131794;stroke-linecap:butt;stroke-linejoin:miter;stroke-miterlimit:10.43299961;stroke-dasharray:none;stroke-dashoffset:0;stroke-opacity:1;display:inline" />
      <line
         x1="393.8887"
         y1="379.01602"
         x2="393.8887"
         y2="374.91965"
         id="line2483"
         style="font-style:normal;font-variant:normal;font-weight:normal;font-stretch:normal;letter-spacing:normal;word-spacing:normal;text-anchor:start;fill:none;fill-opacity:1;stroke:#000000;stroke-width:0.35131794;stroke-linecap:butt;stroke-linejoin:miter;stroke-miterlimit:10.43299961;stroke-dasharray:none;stroke-dashoffset:0;stroke-opacity:1;display:inline" />
      <line
         x1="393.8887"
         y1="96.205032"
         x2="393.8887"
         y2="100.24519"
         id="line2485"
         style="font-style:normal;font-variant:normal;font-weight:normal;font-stretch:normal;letter-spacing:normal;word-spacing:normal;text-anchor:start;fill:none;fill-opacity:1;stroke:#000000;stroke-width:0.35131794;stroke-linecap:butt;stroke-linejoin:miter;stroke-miterlimit:10.43299961;stroke-dasharray:none;stroke-dashoffset:0;stroke-opacity:1;display:inline" />
      <line
         x1="496.24167"
         y1="379.01602"
         x2="496.24167"
         y2="374.91965"
         id="line2489"
         style="font-style:normal;font-variant:normal;font-weight:normal;font-stretch:normal;letter-spacing:normal;word-spacing:normal;text-anchor:start;fill:none;fill-opacity:1;stroke:#000000;stroke-width:0.35131794;stroke-linecap:butt;stroke-linejoin:miter;stroke-miterlimit:10.43299961;stroke-dasharray:none;stroke-dashoffset:0;stroke-opacity:1;display:inline" />
      <line
         x1="496.24167"
         y1="96.205032"
         x2="496.24167"
         y2="100.24519"
         id="line2491"
         style="font-style:normal;font-variant:normal;font-weight:normal;font-stretch:normal;letter-spacing:normal;word-spacing:normal;text-anchor:start;fill:none;fill-opacity:1;stroke:#000000;stroke-width:0.35131794;stroke-linecap:butt;stroke-linejoin:miter;stroke-miterlimit:10.43299961;stroke-dasharray:none;stroke-dashoffset:0;stroke-opacity:1;display:inline" />
      <line
         x1="86.836838"
         y1="365.84158"
         x2="90.876999"
         y2="365.84158"
         id="line2495"
         style="font-style:normal;font-variant:normal;font-weight:normal;font-stretch:normal;letter-spacing:normal;word-spacing:normal;text-anchor:start;fill:none;fill-opacity:1;stroke:#000000;stroke-width:0.35131794;stroke-linecap:butt;stroke-linejoin:miter;stroke-miterlimit:10.43299961;stroke-dasharray:none;stroke-dashoffset:0;stroke-opacity:1;display:inline" />
      <line
         x1="496.24167"
         y1="365.84158"
         x2="492.1384"
         y2="365.84158"
         id="line2497"
         style="font-style:normal;font-variant:normal;font-weight:normal;font-stretch:normal;letter-spacing:normal;word-spacing:normal;text-anchor:start;fill:none;fill-opacity:1;stroke:#000000;stroke-width:0.35131794;stroke-linecap:butt;stroke-linejoin:miter;stroke-miterlimit:10.43299961;stroke-dasharray:none;stroke-dashoffset:0;stroke-opacity:1;display:inline" />
      <line
         x1="86.836838"
         y1="329.7753"
         x2="90.876999"
         y2="329.7753"
         id="line2501"
         style="font-style:normal;font-variant:normal;font-weight:normal;font-stretch:normal;letter-spacing:normal;word-spacing:normal;text-anchor:start;fill:none;fill-opacity:1;stroke:#000000;stroke-width:0.35131794;stroke-linecap:butt;stroke-linejoin:miter;stroke-miterlimit:10.43299961;stroke-dasharray:none;stroke-dashoffset:0;stroke-opacity:1;display:inline" />
      <line
         x1="496.24167"
         y1="329.7753"
         x2="492.1384"
         y2="329.7753"
         id="line2503"
         style="font-style:normal;font-variant:normal;font-weight:normal;font-stretch:normal;letter-spacing:normal;word-spacing:normal;text-anchor:start;fill:none;fill-opacity:1;stroke:#000000;stroke-width:0.35131794;stroke-linecap:butt;stroke-linejoin:miter;stroke-miterlimit:10.43299961;stroke-dasharray:none;stroke-dashoffset:0;stroke-opacity:1;display:inline" />
      <line
         x1="86.836838"
         y1="293.70908"
         x2="90.876999"
         y2="293.70908"
         id="line2507"
         style="font-style:normal;font-variant:normal;font-weight:normal;font-stretch:normal;letter-spacing:normal;word-spacing:normal;text-anchor:start;fill:none;fill-opacity:1;stroke:#000000;stroke-width:0.35131794;stroke-linecap:butt;stroke-linejoin:miter;stroke-miterlimit:10.43299961;stroke-dasharray:none;stroke-dashoffset:0;stroke-opacity:1;display:inline" />
      <line
         x1="496.24167"
         y1="293.70908"
         x2="492.1384"
         y2="293.70908"
         id="line2509"
         style="font-style:normal;font-variant:normal;font-weight:normal;font-stretch:normal;letter-spacing:normal;word-spacing:normal;text-anchor:start;fill:none;fill-opacity:1;stroke:#000000;stroke-width:0.35131794;stroke-linecap:butt;stroke-linejoin:miter;stroke-miterlimit:10.43299961;stroke-dasharray:none;stroke-dashoffset:0;stroke-opacity:1;display:inline" />
      <line
         x1="86.836838"
         y1="257.63565"
         x2="90.876999"
         y2="257.63565"
         id="line2513"
         style="font-style:normal;font-variant:normal;font-weight:normal;font-stretch:normal;letter-spacing:normal;word-spacing:normal;text-anchor:start;fill:none;fill-opacity:1;stroke:#000000;stroke-width:0.35131794;stroke-linecap:butt;stroke-linejoin:miter;stroke-miterlimit:10.43299961;stroke-dasharray:none;stroke-dashoffset:0;stroke-opacity:1;display:inline" />
      <line
         x1="496.24167"
         y1="257.63565"
         x2="492.1384"
         y2="257.63565"
         id="line2515"
         style="font-style:normal;font-variant:normal;font-weight:normal;font-stretch:normal;letter-spacing:normal;word-spacing:normal;text-anchor:start;fill:none;fill-opacity:1;stroke:#000000;stroke-width:0.35131794;stroke-linecap:butt;stroke-linejoin:miter;stroke-miterlimit:10.43299961;stroke-dasharray:none;stroke-dashoffset:0;stroke-opacity:1;display:inline" />
      <text
         y="263.02493"
         x="64.586594"
         font-size="20px"
         id="text2517"
         style="font-size:16.86326218px;font-style:normal;font-variant:normal;font-weight:normal;font-stretch:normal;letter-spacing:normal;word-spacing:normal;text-anchor:start;fill:#000000;fill-opacity:1;stroke:none;stroke-linecap:butt;stroke-linejoin:miter;stroke-miterlimit:10.43299961;stroke-dasharray:none;stroke-dashoffset:0;stroke-opacity:1;display:inline;font-family:'Courier,monospace'">50</text>
      <line
         x1="86.836838"
         y1="221.62556"
         x2="90.876999"
         y2="221.62556"
         id="line2519"
         style="font-style:normal;font-variant:normal;font-weight:normal;font-stretch:normal;letter-spacing:normal;word-spacing:normal;text-anchor:start;fill:none;fill-opacity:1;stroke:#000000;stroke-width:0.35131794;stroke-linecap:butt;stroke-linejoin:miter;stroke-miterlimit:10.43299961;stroke-dasharray:none;stroke-dashoffset:0;stroke-opacity:1;display:inline" />
      <line
         x1="496.24167"
         y1="221.62556"
         x2="492.1384"
         y2="221.62556"
         id="line2521"
         style="font-style:normal;font-variant:normal;font-weight:normal;font-stretch:normal;letter-spacing:normal;word-spacing:normal;text-anchor:start;fill:none;fill-opacity:1;stroke:#000000;stroke-width:0.35131794;stroke-linecap:butt;stroke-linejoin:miter;stroke-miterlimit:10.43299961;stroke-dasharray:none;stroke-dashoffset:0;stroke-opacity:1;display:inline" />
      <line
         x1="86.836838"
         y1="185.55928"
         x2="90.876999"
         y2="185.55928"
         id="line2525"
         style="font-style:normal;font-variant:normal;font-weight:normal;font-stretch:normal;letter-spacing:normal;word-spacing:normal;text-anchor:start;fill:none;fill-opacity:1;stroke:#000000;stroke-width:0.35131794;stroke-linecap:butt;stroke-linejoin:miter;stroke-miterlimit:10.43299961;stroke-dasharray:none;stroke-dashoffset:0;stroke-opacity:1;display:inline" />
      <line
         x1="496.24167"
         y1="185.55928"
         x2="492.1384"
         y2="185.55928"
         id="line2527"
         style="font-style:normal;font-variant:normal;font-weight:normal;font-stretch:normal;letter-spacing:normal;word-spacing:normal;text-anchor:start;fill:none;fill-opacity:1;stroke:#000000;stroke-width:0.35131794;stroke-linecap:butt;stroke-linejoin:miter;stroke-miterlimit:10.43299961;stroke-dasharray:none;stroke-dashoffset:0;stroke-opacity:1;display:inline" />
      <line
         x1="86.836838"
         y1="149.49294"
         x2="90.876999"
         y2="149.49294"
         id="line2531"
         style="font-style:normal;font-variant:normal;font-weight:normal;font-stretch:normal;letter-spacing:normal;word-spacing:normal;text-anchor:start;fill:none;fill-opacity:1;stroke:#000000;stroke-width:0.35131794;stroke-linecap:butt;stroke-linejoin:miter;stroke-miterlimit:10.43299961;stroke-dasharray:none;stroke-dashoffset:0;stroke-opacity:1;display:inline" />
      <line
         x1="496.24167"
         y1="149.49294"
         x2="492.1384"
         y2="149.49294"
         id="line2533"
         style="font-style:normal;font-variant:normal;font-weight:normal;font-stretch:normal;letter-spacing:normal;word-spacing:normal;text-anchor:start;fill:none;fill-opacity:1;stroke:#000000;stroke-width:0.35131794;stroke-linecap:butt;stroke-linejoin:miter;stroke-miterlimit:10.43299961;stroke-dasharray:none;stroke-dashoffset:0;stroke-opacity:1;display:inline" />
      <line
         x1="86.836838"
         y1="113.41963"
         x2="90.876999"
         y2="113.41963"
         id="line2537"
         style="font-style:normal;font-variant:normal;font-weight:normal;font-stretch:normal;letter-spacing:normal;word-spacing:normal;text-anchor:start;fill:none;fill-opacity:1;stroke:#000000;stroke-width:0.35131794;stroke-linecap:butt;stroke-linejoin:miter;stroke-miterlimit:10.43299961;stroke-dasharray:none;stroke-dashoffset:0;stroke-opacity:1;display:inline" />
      <line
         x1="496.24167"
         y1="113.41963"
         x2="492.1384"
         y2="113.41963"
         id="line2539"
         style="font-style:normal;font-variant:normal;font-weight:normal;font-stretch:normal;letter-spacing:normal;word-spacing:normal;text-anchor:start;fill:none;fill-opacity:1;stroke:#000000;stroke-width:0.35131794;stroke-linecap:butt;stroke-linejoin:miter;stroke-miterlimit:10.43299961;stroke-dasharray:none;stroke-dashoffset:0;stroke-opacity:1;display:inline" />
      <polyline
         transform="matrix(0.7026359,0,0,-0.7026359,66.635941,521.24363)"
         points="394.33,345.25 395.08,398.25 395.75,378 396.5,357.75 397.25,391.5 398,370.33 398.67,367.42 399.42,393.42 400.17,344.33 400.92,391.5 401.58,391.5 402.33,345.25 403.08,394.42 403.83,355.83 404.5,379.92 405.25,385.75 406,359.75 406.75,389.58 407.42,379 408.17,347.17 408.92,406 409.58,355.83 410.33,370.33 411.08,399.25 411.83,343.33 412.5,386.67 413.25,387.67 414,347.17 414.75,399.25 415.42,364.5 416.17,375.08 416.92,386.67 417.67,348.17 418.33,386.67 419.08,395.33 419.83,336.58 420.58,410.83 421.25,356.83 422,366.5 422.75,395.33 423.5,352.92 424.17,381.92 424.92,392.5 425.67,344.33 426.42,406.92 427.08,356.83 427.83,374.17 428.58,392.5 429.25,353.92 430,378 430.75,399.25 431.5,340.42 432.17,399.25 432.92,365.5 433.67,360.67 434.42,400.17 435.08,362.58 435.83,371.25 436.58,393.42 437.33,342.33 438,397.33 438.75,371.25 439.5,362.58 440.25,395.33 440.92,354.92 441.67,387.67 442.42,385.75 443.17,360.67 443.83,374.17 444.58,377.08 445.33,358.75 446,406.92 446.75,352.92 447.5,376.08 448.25,395.33 448.92,345.25 449.67,391.5 450.42,379.92 451.17,351 451.83,398.25 452.58,363.58 453.33,364.5 454.08,425.25 454.75,328.83 455.5,379.92 456.25,381.92 457,356.83 457.67,416.58 458.42,338.5 459.17,363.58 459.92,406 460.58,347.17 461.33,389.58 462.08,380.92 462.83,355.83 463.5,390.58 464.25,376.08 465,357.75 465.67,410.83 466.42,340.42 467.17,386.67 467.92,386.67 468.58,349.08 469.33,391.5 470.08,372.25 470.83,358.75 471.5,406 472.25,352 473,379 473.75,387.67 474.42,349.08 475.17,397.33 475.92,368.33 476.67,362.58 477.33,399.25 478.08,346.25 478.83,379 479.58,399.25 480.25,347.17 481,392.5 481.75,382.83 482.42,352 483.17,402.08 483.92,344.33 484.67,379.92 485.33,388.67 486.08,352 486.83,405 487.58,373.17 488.25,353.92 489,390.58 489.75,361.67 490.5,373.17 491.17,387.67 491.92,359.75 492.67,382.83 493.42,382.83 494.08,349.08 494.83,406.92 495.58,355.83 496.33,370.33 497,398.25 497.75,349.08 498.5,383.83 499.25,380.92 499.92,348.17 500.67,408.92 501.42,362.58 502.08,367.42 502.83,390.58 503.58,359.75 504.33,380.92 505,387.67 505.75,342.33 506.5,406.92 507.25,360.67 507.92,369.33 508.67,395.33 509.42,362.58 510.17,370.33 510.83,390.58 511.58,342.33 512.33,405 513.08,364.5 513.75,368.33 514.5,389.58 515.25,359.75 516,372.25 516.67,394.42 517.42,351 518.17,405 518.83,355.83 519.58,360.67 520.33,406 521.08,354.92 521.75,375.08 522.5,389.58 523.25,352.92 524,404.08 524.67,381.92 525.42,346.25 526.17,387.67 526.92,367.42 527.58,368.33 528.33,396.33 529.08,351 529.83,396.33 530.5,363.58 531.25,361.67 532,397.33 532.75,358.75 533.42,372.25 534.17,395.33 534.92,339.5 535.67,394.42 536.33,385.75 537.08,350.08 537.83,397.33 538.5,362.58 539.25,365.5 540,399.25 540.75,351 541.42,390.58 542.17,378 542.92,343.33 543.67,411.75 544.33,356.83 545.08,367.42 545.83,399.25 546.58,356.83 547.25,378 548,397.33 548.75,342.33 549.5,396.33 550.17,365.5 550.92,361.67 551.67,385.75 552.42,358.75 553.08,395.33 553.83,376.08 554.58,363.58 555.25,383.83 556,379 556.75,356.83 557.5,402.08 558.17,344.33 558.92,393.42 559.67,376.08 560.42,360.67 561.08,391.5 561.83,372.25 562.58,357.75 563.33,394.42 564,357.75 564.75,382.83 565.5,386.67 566.25,348.17 566.92,397.33 567.67,397.33 568.42,334.67 569.17,403.08 569.83,350.08 570.58,390.58 571.33,382.83 572.08,345.25 572.75,394.42 573.5,386.67 574.25,339.5 574.92,403.08 575.67,362.58 576.42,366.5 577.17,401.17 577.83,340.42 578.58,397.33 579.33,379 580.08,348.17 580.75,402.08 581.5,361.67 582.25,370.33 583,390.58 583.67,348.17 584.42,394.42 585.17,377.08 585.92,352.92 586.58,403.08 587.33,358.75 588.08,369.33 588.83,393.42 589.5,366.5 590.25,374.17 591,382.83 591.67,359.75 592.42,393.42 593.17,372.25 593.92,361.67 594.58,383.83 595.33,375.08 596.08,366.5 596.83,387.67 597.5,348.17 598.25,400.17 599,384.75 599.75,352 600.42,393.42 601.17,352.92 601.92,379.92 602.67,400.17 603.33,337.5 604.08,394.42 604.83,374.17 605.58,365.5 606.25,391.5 607,349.08 607.75,387.67 608.5,386.67 609.17,348.17 609.92,399.25 610.67,373.17 611.33,353.92 611.5,359 "
         id="polyline2551"
         style="font-style:normal;font-variant:normal;font-weight:normal;font-stretch:normal;letter-spacing:normal;word-spacing:normal;text-anchor:start;fill:none;fill-opacity:1;stroke:#142b8c;stroke-width:1.5;stroke-linecap:butt;stroke-linejoin:round;stroke-miterlimit:10.43299961;stroke-dasharray:none;stroke-dashoffset:0;stroke-opacity:1;display:inline" />
      <polyline
         transform="matrix(0.7026359,0,0,-0.7026359,66.635941,521.24363)"
         points="176.58,401.17 177.25,364.5 178,365.5 178.75,395.33 179.5,346.25 180.17,409.83 180.92,360.67 181.67,358.75 182.42,395.33 183.08,356.83 183.83,376.08 184.58,392.5 185.33,357.75 186,382.83 186.75,383.83 187.5,345.25 188.25,402.08 188.92,366.5 189.67,360.67 190.42,403.08 191.08,342.33 191.83,394.42 192.58,436.83 193.33,296.08 194,392.5 194.75,375.08 195.5,351 196.25,410.83 196.92,347.17 197.67,385.75 198.42,382.83 199.17,351 199.83,394.42 200.58,371.25 201.33,358.75 202.08,406 202.75,347.17 203.5,389.58 204.25,386.67 205,400.17 205.67,340.42 206.42,367.42 207.17,354.92 207.92,402.08 208.58,356.83 209.33,382.83 210.08,388.67 210.75,347.17 211.5,398.25 212.25,377.08 213,352 213.67,407.92 214.42,346.25 215.17,380.92 215.92,392.5 216.58,343.33 217.33,391.5 218.08,385.75 218.83,352.92 219.5,400.17 220.25,358.75 221,372.25 221.75,389.58 222.42,349.08 223.17,390.58 223.92,391.5 224.67,337.5 225.33,418.5 226.08,348.17 226.83,375.08 227.5,396.33 228.25,339.5 229,393.42 229.75,444.58 230.42,286.42 231.17,402.08 231.92,361.67 232.67,368.33 233.33,391.5 234.08,353.92 234.83,398.25 235.58,372.25 236.25,347.17 237,402.08 237.75,361.67 238.5,381.92 239.17,381.92 239.92,348.17 240.67,395.33 241.42,381.92 242.08,344.33 242.83,399.25 243.58,367.42 244.33,366.5 245,394.42 245.75,361.67 246.5,375.08 247.17,387.67 247.92,357.75 248.67,396.33 249.42,356.83 250.08,364.5 250.83,406 251.58,340.42 252.33,383.83 253,396.33 253.75,337.5 254.5,393.42 255.25,374.17 255.92,367.42 256.67,395.33 257.42,357.75 258.17,375.08 258.83,393.42 259.58,354.92 260.33,391.5 261.08,365.5 261.75,363.58 262.5,398.25 263.25,362.58 263.92,363.58 264.67,406.92 265.42,350.08 266.17,389.58 266.83,365.5 267.58,360.67 268.33,401.17 269.08,369.33 269.75,365.5 270.5,399.25 271.25,338.5 272,388.67 272.67,376.08 273.42,360.67 274.17,400.17 274.92,360.67 275.58,364.5 276.33,405 277.08,337.5 277.83,394.42 278.5,384.75 279.25,353.92 280,390.58 280.75,362.58 281.42,364.5 282.17,407.92 282.92,352.92 283.58,374.17 284.33,381.92 285.08,359.75 285.83,392.5 286.5,360.67 287.25,372.25 288,395.33 288.75,353.92 289.42,382.83 290.17,381.92 290.92,354.92 291.67,401.17 292.33,360.67 293.08,369.33 293.83,409.83 294.58,334.67 295.25,382.83 296,389.58 296.75,360.67 297.5,386.67 298.17,365.5 298.92,363.58 299.67,404.08 300.33,351 301.08,379.92 301.83,384.75 302.58,356.83 303.25,386.67 304,380.92 304.75,355.83 305.5,405 306.17,346.25 306.92,376.08 307.67,399.25 308.42,352.92 309.08,420.5 309.83,344.33 310.58,356.83 311.33,399.25 312,353.92 312.75,369.33 313.5,401.17 314.25,357.75 314.92,375.08 315.67,388.67 316.42,341.42 317.17,406.92 317.83,363.58 318.58,364.5 319.33,400.17 320,354.92 320.75,384.75 321.5,377.08 322.25,352.92 322.92,400.17 323.67,357.75 324.42,370.33 325.17,397.33 325.83,349.08 326.58,384.75 327.33,389.58 328.08,346.25 328.75,396.33 329.5,371.25 330.25,358.75 331,407.92 331.67,353.92 332.42,367.42 333.17,396.33 333.92,346.25 334.58,399.25 335.33,362.58 336.08,358.75 336.75,420.5 337.5,339.5 338.25,378 339,388.67 339.67,352 340.42,403.08 341.17,359.75 341.92,360.67 342.58,403.08 343.33,348.17 344.08,377.08 344.83,392.5 345.5,357.75 346.25,400.17 347,359.75 347.75,359.75 348.42,401.17 349.17,359.75 349.92,369.33 350.67,396.33 351.33,352 352.08,403.08 352.83,370.33 353.58,346.25 354.25,411.75 355,352.92 355.75,365.5 356.42,398.25 357.17,351 357.92,394.42 358.67,372.25 359.33,355.83 360.08,399.25 360.83,358.75 361.58,368.33 362.25,399.25 363,342.33 363.75,394.42 364.5,380.92 365.17,360.67 365.92,387.67 366.67,367.42 367.42,360.67 368.08,407.92 368.83,343.33 369.58,394.42 370.33,376.08 371,347.17 371.75,401.17 372.5,365.5 373.17,366.5 373.92,405 374.67,338.5 375.42,393.42 376.08,379.92 376.83,364.5 377.58,380.92 378.33,371.25 379,361.67 379.75,420.5 380.5,328.83 381.25,390.58 381.92,375.08 382.67,353.92 383.42,408.92 384.17,363.58 384.83,351 385.58,403.08 386.33,353.92 387.08,382.83 387.75,383.83 388.5,349.08 389.25,397.33 390,372.25 390.67,362.58 391.42,398.25 392.17,356.83 392.83,379.92 393.58,388.67 394.33,345.25 "
         id="polyline2553"
         style="font-style:normal;font-variant:normal;font-weight:normal;font-stretch:normal;letter-spacing:normal;word-spacing:normal;text-anchor:start;fill:none;fill-opacity:1;stroke:#142b8c;stroke-width:1.5;stroke-linecap:butt;stroke-linejoin:round;stroke-miterlimit:10.43299961;stroke-dasharray:none;stroke-dashoffset:0;stroke-opacity:1;display:inline" />
      <polyline
         transform="matrix(0.7026359,0,0,-0.7026359,66.635941,521.24363)"
         points="28.75,373.17 29.418,355.83 30.168,399.25 30.918,356.83 31.582,388.67 32.332,379 33.082,354.92 33.832,385.75 34.5,381.92 35.25,346.25 36,403.08 36.75,365.5 37.418,374.17 38.168,392.5 38.918,346.25 39.668,446.5 40.332,325.92 41.082,353.92 41.832,398.25 42.582,358.75 43.25,371.25 44,389.58 44.75,353.92 45.418,386.67 46.168,388.67 46.918,348.17 47.668,401.17 48.332,361.67 49.082,368.33 49.832,398.25 50.582,346.25 51.25,397.33 52,434.92 52.75,305.75 53.5,383.83 54.168,373.17 54.918,378 55.668,383.83 56.418,340.42 57.082,385.75 57.832,395.33 58.582,341.42 59.332,399.25 60,369.33 60.75,361.67 61.5,390.58 62.25,363.58 62.918,379.92 63.668,384.75 64.418,406.92 65.082,344.33 65.832,361.67 66.582,363.58 67.332,396.33 68,355.83 68.75,382.83 69.5,383.83 70.25,350.08 70.918,400.17 71.668,366.5 72.418,367.42 73.168,390.58 73.832,368.33 74.582,365.5 75.332,406.92 76.082,325.92 76.75,401.17 77.5,374.17 78.25,356.83 79,394.42 79.668,359.75 80.418,375.08 81.168,400.17 81.832,352 82.582,382.83 83.332,372.25 84.082,361.67 84.75,399.25 85.5,356.83 86.25,390.58 87,380.92 87.668,352.92 88.418,380.92 89.168,443.58 89.918,308.58 90.582,385.75 91.332,360.67 92.082,366.5 92.832,400.17 93.5,373.17 94.25,361.67 95,379.92 95.75,357.75 96.418,412.75 97.168,345.25 97.918,383.83 98.668,381.92 99.332,353.92 100.08,386.67 100.83,379 101.5,355.83 102.25,397.33 103,360.67 103.75,362.58 104.42,404.08 105.17,349.08 105.92,385.75 106.67,380.92 107.33,354.92 108.08,394.42 108.83,372.25 109.58,355.83 110.25,396.33 111,359.75 111.75,379 112.5,383.83 113.17,361.67 113.92,386.67 114.67,375.08 115.42,352.92 116.08,408.92 116.83,350.08 117.58,379 118.25,388.67 119,357.75 119.75,383.83 120.5,380.92 121.17,348.17 121.92,403.08 122.67,353.92 123.42,377.08 124.08,394.42 124.83,351 125.58,389.58 126.33,374.17 127,355.83 127.75,409.83 128.5,347.17 129.25,373.17 129.92,393.42 130.67,356.83 131.42,386.67 132.17,379.92 132.83,353.92 133.58,405 134.33,354.92 135.08,369.33 135.75,399.25 136.5,349.08 137.25,388.67 137.92,379.92 138.67,351 139.42,402.08 140.17,357.75 140.83,371.25 141.58,402.08 142.33,346.25 143.08,392.5 143.75,370.33 144.5,352.92 145.25,404.08 146,362.58 146.67,365.5 147.42,391.5 148.17,358.75 148.92,379.92 149.58,384.75 150.33,352 151.08,404.08 151.83,358.75 152.5,363.58 153.25,398.25 154,377.08 154.67,407.92 155.42,333.67 156.17,348.17 156.92,406.92 157.58,367.42 158.33,350.08 159.08,411.75 159.83,352.92 160.5,389.58 161.25,382.83 162,341.42 162.75,402.08 163.42,361.67 164.17,386.67 164.92,375.08 165.67,365.5 166.33,364.5 167.08,396.33 167.83,352.92 168.58,397.33 169.25,362.58 170,358.75 170.75,403.08 171.5,362.58 172.17,367.42 172.92,394.42 173.67,352 174.33,396.33 175.08,372.25 175.83,352 176.58,401.17 "
         id="polyline2555"
         style="font-style:normal;font-variant:normal;font-weight:normal;font-stretch:normal;letter-spacing:normal;word-spacing:normal;text-anchor:start;fill:none;fill-opacity:1;stroke:#142b8c;stroke-width:1.5;stroke-linecap:butt;stroke-linejoin:round;stroke-miterlimit:10.43299961;stroke-dasharray:none;stroke-dashoffset:0;stroke-opacity:1;display:inline" />
      <text
         xml:space="preserve"
         style="font-size:15.73914433px;font-style:normal;font-variant:normal;font-weight:normal;font-stretch:normal;letter-spacing:normal;word-spacing:normal;text-anchor:start;fill:#000000;fill-opacity:1;stroke:none;stroke-width:1px;stroke-linecap:butt;stroke-linejoin:miter;stroke-miterlimit:10.43299961;stroke-dasharray:none;stroke-dashoffset:0;stroke-opacity:1;display:inline;font-family:Sans;-inkscape-font-specification:Sans"
         x="-273.90359"
         y="36.553265"
         id="text2701"
         transform="matrix(0,-1,1,0,0,0)"><tspan
           sodipodi:role="line"
           id="tspan2703"
           x="-273.90359"
           y="36.553265">Time (us)</tspan></text>
      <text
         xml:space="preserve"
         style="font-size:15.73914433px;font-style:normal;font-variant:normal;font-weight:normal;font-stretch:normal;letter-spacing:normal;word-spacing:normal;text-anchor:start;fill:#000000;fill-opacity:1;stroke:none;stroke-width:1px;stroke-linecap:butt;stroke-linejoin:miter;stroke-miterlimit:10.43299961;stroke-dasharray:none;stroke-dashoffset:0;stroke-opacity:1;display:inline;font-family:Sans;-inkscape-font-specification:Sans"
         x="260.24161"
         y="412.33426"
         id="text2705"><tspan
           sodipodi:role="line"
           id="tspan2707"
           x="260.24161"
           y="412.33426">Time (s)</tspan></text>
      <text
         xml:space="preserve"
         style="font-size:15.73914433px;font-style:normal;font-variant:normal;font-weight:normal;font-stretch:normal;letter-spacing:normal;word-spacing:normal;text-anchor:start;fill:#000000;fill-opacity:1;stroke:none;stroke-width:1px;stroke-linecap:butt;stroke-linejoin:miter;stroke-miterlimit:10.43299961;stroke-dasharray:none;stroke-dashoffset:0;stroke-opacity:1;display:inline;font-family:Sans;-inkscape-font-specification:Sans"
         x="48.63908"
         y="120.03761"
         id="text2713"><tspan
           sodipodi:role="line"
           id="tspan2715"
           x="48.63908"
           y="120.03761">50.8</tspan></text>
      <text
         xml:space="preserve"
         style="font-size:15.73914433px;font-style:normal;font-variant:normal;font-weight:normal;font-stretch:normal;letter-spacing:normal;word-spacing:normal;text-anchor:start;fill:#000000;fill-opacity:1;stroke:none;stroke-width:1px;stroke-linecap:butt;stroke-linejoin:miter;stroke-miterlimit:10.43299961;stroke-dasharray:none;stroke-dashoffset:0;stroke-opacity:1;display:inline;font-family:Sans;-inkscape-font-specification:Sans"
         x="47.532269"
         y="155.67189"
         id="text2717"><tspan
           sodipodi:role="line"
           id="tspan2719"
           x="47.532269"
           y="155.67189">50.6</tspan></text>
      <text
         xml:space="preserve"
         style="font-size:15.73914433px;font-style:normal;font-variant:normal;font-weight:normal;font-stretch:normal;letter-spacing:normal;word-spacing:normal;text-anchor:start;fill:#000000;fill-opacity:1;stroke:none;stroke-width:1px;stroke-linecap:butt;stroke-linejoin:miter;stroke-miterlimit:10.43299961;stroke-dasharray:none;stroke-dashoffset:0;stroke-opacity:1;display:inline;font-family:Sans;-inkscape-font-specification:Sans"
         x="46.441326"
         y="191.57661"
         id="text2721"><tspan
           sodipodi:role="line"
           id="tspan2723"
           x="46.441326"
           y="191.57661">50.4</tspan></text>
      <text
         xml:space="preserve"
         style="font-size:15.73914433px;font-style:normal;font-variant:normal;font-weight:normal;font-stretch:normal;letter-spacing:normal;word-spacing:normal;text-anchor:start;fill:#000000;fill-opacity:1;stroke:none;stroke-width:1px;stroke-linecap:butt;stroke-linejoin:miter;stroke-miterlimit:10.43299961;stroke-dasharray:none;stroke-dashoffset:0;stroke-opacity:1;display:inline;font-family:Sans;-inkscape-font-specification:Sans"
         x="48.448162"
         y="227.6429"
         id="text2725"><tspan
           sodipodi:role="line"
           id="tspan2727"
           x="48.448162"
           y="227.6429">50.2</tspan></text>
      <text
         xml:space="preserve"
         style="font-size:15.73914433px;font-style:normal;font-variant:normal;font-weight:normal;font-stretch:normal;letter-spacing:normal;word-spacing:normal;text-anchor:start;fill:#000000;fill-opacity:1;stroke:none;stroke-width:1px;stroke-linecap:butt;stroke-linejoin:miter;stroke-miterlimit:10.43299961;stroke-dasharray:none;stroke-dashoffset:0;stroke-opacity:1;display:inline;font-family:Sans;-inkscape-font-specification:Sans"
         x="65.265305"
         y="263.65298"
         id="text2729"><tspan
           sodipodi:role="line"
           id="tspan2731"
           x="65.265305"
           y="263.65298">50</tspan></text>
      <text
         xml:space="preserve"
         style="font-size:15.73914433px;font-style:normal;font-variant:normal;font-weight:normal;font-stretch:normal;letter-spacing:normal;word-spacing:normal;text-anchor:start;fill:#000000;fill-opacity:1;stroke:none;stroke-width:1px;stroke-linecap:butt;stroke-linejoin:miter;stroke-miterlimit:10.43299961;stroke-dasharray:none;stroke-dashoffset:0;stroke-opacity:1;display:inline;font-family:Sans;-inkscape-font-specification:Sans"
         x="48.165447"
         y="298.78342"
         id="text2733"><tspan
           sodipodi:role="line"
           id="tspan2735"
           x="48.165447"
           y="298.78342">49.8</tspan></text>
      <text
         xml:space="preserve"
         style="font-size:15.73914433px;font-style:normal;font-variant:normal;font-weight:normal;font-stretch:normal;letter-spacing:normal;word-spacing:normal;text-anchor:start;fill:#000000;fill-opacity:1;stroke:none;stroke-width:1px;stroke-linecap:butt;stroke-linejoin:miter;stroke-miterlimit:10.43299961;stroke-dasharray:none;stroke-dashoffset:0;stroke-opacity:1;display:inline;font-family:Sans;-inkscape-font-specification:Sans"
         x="48.283245"
         y="335.80948"
         id="text2737"><tspan
           sodipodi:role="line"
           id="tspan2739"
           x="48.283245"
           y="335.80948">49.6</tspan></text>
      <text
         xml:space="preserve"
         style="font-size:15.73914433px;font-style:normal;font-variant:normal;font-weight:normal;font-stretch:normal;letter-spacing:normal;word-spacing:normal;text-anchor:start;fill:#000000;fill-opacity:1;stroke:none;stroke-width:1px;stroke-linecap:butt;stroke-linejoin:miter;stroke-miterlimit:10.43299961;stroke-dasharray:none;stroke-dashoffset:0;stroke-opacity:1;display:inline;font-family:Sans;-inkscape-font-specification:Sans"
         x="47.192425"
         y="370.51834"
         id="text2741"><tspan
           sodipodi:role="line"
           id="tspan2743"
           x="47.192425"
           y="370.51834">49.4</tspan></text>
      <text
         xml:space="preserve"
         style="font-size:15.73914433px;font-style:normal;font-variant:normal;font-weight:normal;font-stretch:normal;letter-spacing:normal;word-spacing:normal;text-anchor:start;fill:#000000;fill-opacity:1;stroke:none;stroke-width:1px;stroke-linecap:butt;stroke-linejoin:miter;stroke-miterlimit:10.43299961;stroke-dasharray:none;stroke-dashoffset:0;stroke-opacity:1;display:inline;font-family:Sans;-inkscape-font-specification:Sans"
         x="70.729782"
         y="394.3812"
         id="text2745"><tspan
           sodipodi:role="line"
           id="tspan2747"
           x="70.729782"
           y="394.3812">2.00</tspan></text>
      <text
         xml:space="preserve"
         style="font-size:15.73914433px;font-style:normal;font-variant:normal;font-weight:normal;font-stretch:normal;letter-spacing:normal;word-spacing:normal;text-anchor:start;fill:#000000;fill-opacity:1;stroke:none;stroke-width:1px;stroke-linecap:butt;stroke-linejoin:miter;stroke-miterlimit:10.43299961;stroke-dasharray:none;stroke-dashoffset:0;stroke-opacity:1;display:inline;font-family:Sans;-inkscape-font-specification:Sans"
         x="171.64006"
         y="395.16537"
         id="text2749"><tspan
           sodipodi:role="line"
           id="tspan2751"
           x="171.64006"
           y="395.16537">2.01</tspan></text>
      <text
         xml:space="preserve"
         style="font-size:15.73914433px;font-style:normal;font-variant:normal;font-weight:normal;font-stretch:normal;letter-spacing:normal;word-spacing:normal;text-anchor:start;fill:#000000;fill-opacity:1;stroke:none;stroke-width:1px;stroke-linecap:butt;stroke-linejoin:miter;stroke-miterlimit:10.43299961;stroke-dasharray:none;stroke-dashoffset:0;stroke-opacity:1;display:inline;font-family:Sans;-inkscape-font-specification:Sans"
         x="275.69595"
         y="395.16537"
         id="text2753"><tspan
           sodipodi:role="line"
           id="tspan2755"
           x="275.69595"
           y="395.16537">2.02</tspan></text>
      <text
         xml:space="preserve"
         style="font-size:15.73914433px;font-style:normal;font-variant:normal;font-weight:normal;font-stretch:normal;letter-spacing:normal;word-spacing:normal;text-anchor:start;fill:#000000;fill-opacity:1;stroke:none;stroke-width:1px;stroke-linecap:butt;stroke-linejoin:miter;stroke-miterlimit:10.43299961;stroke-dasharray:none;stroke-dashoffset:0;stroke-opacity:1;display:inline;font-family:Sans;-inkscape-font-specification:Sans"
         x="377.32632"
         y="395.16537"
         id="text2757"><tspan
           sodipodi:role="line"
           id="tspan2759"
           x="377.32632"
           y="395.16537">2.03</tspan></text>
      <text
         xml:space="preserve"
         style="font-size:15.73914433px;font-style:normal;font-variant:normal;font-weight:normal;font-stretch:normal;letter-spacing:normal;word-spacing:normal;text-anchor:start;fill:#000000;fill-opacity:1;stroke:none;stroke-width:1px;stroke-linecap:butt;stroke-linejoin:miter;stroke-miterlimit:10.43299961;stroke-dasharray:none;stroke-dashoffset:0;stroke-opacity:1;display:inline;font-family:Sans;-inkscape-font-specification:Sans"
         x="478.39499"
         y="395.16537"
         id="text2761"><tspan
           sodipodi:role="line"
           id="tspan2763"
           x="478.39499"
           y="395.16537">2.04</tspan></text>
    </g>
  </g>
</svg>
